<mxfile host="app.diagrams.net" agent="Mozilla/5.0 (Windows NT 10.0; Win64; x64) AppleWebKit/537.36 (KHTML, like Gecko) Chrome/131.0.0.0 Safari/537.36" version="25.0.3">
  <diagram name="PÃ¡gina-1" id="p8XuNXhmtK9MtBqG9Apj">
    <mxGraphModel dx="1434" dy="780" grid="1" gridSize="10" guides="1" tooltips="1" connect="1" arrows="1" fold="1" page="1" pageScale="1" pageWidth="1169" pageHeight="827" math="0" shadow="0">
      <root>
        <mxCell id="0" />
        <mxCell id="1" parent="0" />
        <mxCell id="-Gvag7M_loGddgBHhZKD-4" style="edgeStyle=orthogonalEdgeStyle;rounded=0;orthogonalLoop=1;jettySize=auto;html=1;exitX=0.5;exitY=1;exitDx=0;exitDy=0;exitPerimeter=0;" edge="1" parent="1" source="-Gvag7M_loGddgBHhZKD-1" target="-Gvag7M_loGddgBHhZKD-3">
          <mxGeometry relative="1" as="geometry" />
        </mxCell>
        <mxCell id="-Gvag7M_loGddgBHhZKD-1" value="INICIO" style="strokeWidth=2;html=1;shape=mxgraph.flowchart.start_1;whiteSpace=wrap;" vertex="1" parent="1">
          <mxGeometry x="535" y="30" width="100" height="60" as="geometry" />
        </mxCell>
        <mxCell id="-Gvag7M_loGddgBHhZKD-2" value="FIM" style="strokeWidth=2;html=1;shape=mxgraph.flowchart.start_1;whiteSpace=wrap;" vertex="1" parent="1">
          <mxGeometry x="535" y="670" width="100" height="60" as="geometry" />
        </mxCell>
        <mxCell id="-Gvag7M_loGddgBHhZKD-7" style="edgeStyle=orthogonalEdgeStyle;rounded=0;orthogonalLoop=1;jettySize=auto;html=1;" edge="1" parent="1" source="-Gvag7M_loGddgBHhZKD-3" target="-Gvag7M_loGddgBHhZKD-5">
          <mxGeometry relative="1" as="geometry" />
        </mxCell>
        <mxCell id="-Gvag7M_loGddgBHhZKD-3" value="PRODUTO" style="html=1;strokeWidth=2;shape=manualInput;whiteSpace=wrap;rounded=1;size=26;arcSize=11;" vertex="1" parent="1">
          <mxGeometry x="535" y="120" width="100" height="60" as="geometry" />
        </mxCell>
        <mxCell id="-Gvag7M_loGddgBHhZKD-8" style="edgeStyle=orthogonalEdgeStyle;rounded=0;orthogonalLoop=1;jettySize=auto;html=1;entryX=0.5;entryY=0;entryDx=0;entryDy=0;" edge="1" parent="1" source="-Gvag7M_loGddgBHhZKD-5" target="-Gvag7M_loGddgBHhZKD-6">
          <mxGeometry relative="1" as="geometry" />
        </mxCell>
        <mxCell id="-Gvag7M_loGddgBHhZKD-5" value="VALOR" style="html=1;strokeWidth=2;shape=manualInput;whiteSpace=wrap;rounded=1;size=26;arcSize=11;" vertex="1" parent="1">
          <mxGeometry x="535" y="230" width="100" height="60" as="geometry" />
        </mxCell>
        <mxCell id="-Gvag7M_loGddgBHhZKD-11" style="edgeStyle=orthogonalEdgeStyle;rounded=0;orthogonalLoop=1;jettySize=auto;html=1;" edge="1" parent="1" source="-Gvag7M_loGddgBHhZKD-6" target="-Gvag7M_loGddgBHhZKD-9">
          <mxGeometry relative="1" as="geometry" />
        </mxCell>
        <mxCell id="-Gvag7M_loGddgBHhZKD-6" value="DESCONTO" style="html=1;strokeWidth=2;shape=manualInput;whiteSpace=wrap;rounded=1;size=26;arcSize=11;" vertex="1" parent="1">
          <mxGeometry x="535" y="330" width="100" height="60" as="geometry" />
        </mxCell>
        <mxCell id="-Gvag7M_loGddgBHhZKD-9" value="PRECOFINAL = VALOR - DESCONTO" style="rounded=1;whiteSpace=wrap;html=1;absoluteArcSize=1;arcSize=14;strokeWidth=2;" vertex="1" parent="1">
          <mxGeometry x="455" y="440" width="260" height="70" as="geometry" />
        </mxCell>
        <mxCell id="-Gvag7M_loGddgBHhZKD-13" style="edgeStyle=orthogonalEdgeStyle;rounded=0;orthogonalLoop=1;jettySize=auto;html=1;exitX=0.5;exitY=1;exitDx=0;exitDy=0;exitPerimeter=0;" edge="1" parent="1" source="-Gvag7M_loGddgBHhZKD-10" target="-Gvag7M_loGddgBHhZKD-2">
          <mxGeometry relative="1" as="geometry" />
        </mxCell>
        <mxCell id="-Gvag7M_loGddgBHhZKD-10" value="PRODUTO&lt;div&gt;VALOR&lt;/div&gt;&lt;div&gt;DESCONTO&lt;/div&gt;&lt;div&gt;PRECOFINAL&lt;/div&gt;" style="strokeWidth=2;html=1;shape=mxgraph.flowchart.display;whiteSpace=wrap;" vertex="1" parent="1">
          <mxGeometry x="510" y="550" width="150" height="80" as="geometry" />
        </mxCell>
        <mxCell id="-Gvag7M_loGddgBHhZKD-12" style="edgeStyle=orthogonalEdgeStyle;rounded=0;orthogonalLoop=1;jettySize=auto;html=1;exitX=0.5;exitY=1;exitDx=0;exitDy=0;entryX=0.5;entryY=0;entryDx=0;entryDy=0;entryPerimeter=0;" edge="1" parent="1" source="-Gvag7M_loGddgBHhZKD-9" target="-Gvag7M_loGddgBHhZKD-10">
          <mxGeometry relative="1" as="geometry" />
        </mxCell>
      </root>
    </mxGraphModel>
  </diagram>
</mxfile>
